<svg width="1143" height="386" viewBox="0 0 1143 386" fill="none" xmlns="http://www.w3.org/2000/svg">
<g filter="url(#filter0_di)">
<path d="M491.643 149.914V217.387C491.643 225.034 490.014 231.665 486.757 237.282C483.5 242.852 478.828 247.1 472.739 250.026C466.65 252.953 459.452 254.416 451.145 254.416C438.589 254.416 428.701 251.159 421.479 244.646C414.257 238.132 410.576 229.211 410.434 217.883V149.914H435.427V218.378C435.71 229.659 440.949 235.3 451.145 235.3C456.289 235.3 460.183 233.884 462.827 231.052C465.47 228.22 466.792 223.618 466.792 217.246V149.914H491.643ZM572.143 211.936H532.07V253H507.219V149.914H576.179V169.101H532.07V192.819H572.143V211.936ZM651.44 211.936H611.367V253H586.516V149.914H655.476V169.101H611.367V192.819H651.44V211.936ZM718.984 225.6C718.984 221.966 717.686 219.134 715.09 217.104C712.541 215.074 708.033 212.974 701.567 210.803C695.1 208.632 689.814 206.531 685.708 204.501C672.35 197.941 665.671 188.925 665.671 177.456C665.671 171.744 667.323 166.717 670.627 162.375C673.978 157.985 678.698 154.587 684.787 152.18C690.876 149.725 697.72 148.498 705.319 148.498C712.73 148.498 719.361 149.82 725.214 152.463C731.114 155.106 735.693 158.882 738.95 163.791C742.207 168.653 743.835 174.222 743.835 180.5H719.055C719.055 176.299 717.757 173.042 715.161 170.729C712.612 168.417 709.143 167.26 704.753 167.26C700.316 167.26 696.8 168.251 694.204 170.234C691.655 172.169 690.38 174.647 690.38 177.668C690.38 180.311 691.796 182.718 694.628 184.89C697.46 187.014 702.44 189.232 709.567 191.545C716.695 193.811 722.548 196.265 727.126 198.908C738.265 205.327 743.835 214.178 743.835 225.458C743.835 234.474 740.437 241.554 733.64 246.699C726.843 251.844 717.521 254.416 705.673 254.416C697.319 254.416 689.743 252.929 682.946 249.956C676.197 246.935 671.099 242.828 667.653 237.636C664.255 232.397 662.556 226.379 662.556 219.582H687.478C687.478 225.104 688.894 229.187 691.726 231.831C694.605 234.427 699.254 235.725 705.673 235.725C709.78 235.725 713.013 234.851 715.373 233.105C717.78 231.311 718.984 228.81 718.984 225.6ZM878.931 253H844.678L794.036 164.081V253H759.587V110.102H794.036L844.58 199.021V110.102H878.931V253ZM935.167 226.501H995.134V253H900.719V110.102H935.167V226.501ZM1044.11 204.517V253H1009.66V110.102H1066.68C1077.61 110.102 1087.26 112.13 1095.63 116.187C1104.07 120.178 1110.58 125.903 1115.16 133.362C1119.81 140.755 1122.13 149.163 1122.13 158.585C1122.13 172.521 1117.13 183.677 1107.12 192.052C1097.17 200.362 1083.5 204.517 1066.09 204.517H1044.11ZM1044.11 177.919H1066.68C1073.35 177.919 1078.43 176.251 1081.89 172.914C1085.43 169.577 1087.19 164.866 1087.19 158.781C1087.19 152.107 1085.39 146.775 1081.8 142.784C1078.2 138.792 1073.29 136.764 1067.07 136.699H1044.11V177.919Z" fill="#F23827"/>
</g>
<path fill-rule="evenodd" clip-rule="evenodd" d="M137.559 376.479C208.282 376.479 265.614 319.037 265.614 248.18C265.614 177.322 208.282 119.881 137.559 119.881C66.8355 119.881 9.50318 177.322 9.50318 248.18C9.50318 319.037 66.8355 376.479 137.559 376.479ZM137.559 386C213.53 386 275.117 324.296 275.117 248.18C275.117 172.064 213.53 110.359 137.559 110.359C61.587 110.359 0 172.064 0 248.18C0 324.296 61.587 386 137.559 386Z" fill="#F23827"/>
<path fill-rule="evenodd" clip-rule="evenodd" d="M160.591 44.5544C187.762 27.7198 219.796 20.5344 251.537 24.1545C283.279 27.7747 312.881 41.99 335.58 64.5123C358.279 87.0347 372.754 116.554 376.675 148.319C380.597 180.084 373.736 212.247 357.198 239.632C340.66 267.017 315.406 288.029 285.502 299.289C255.597 310.548 222.781 311.398 192.336 301.704C161.89 292.009 135.586 272.332 117.657 245.841L125.522 240.498C142.254 265.22 166.802 283.582 195.214 292.63C223.627 301.677 254.251 300.883 282.159 290.376C310.067 279.869 333.634 260.259 349.067 234.703C364.501 209.147 370.903 179.132 367.244 149.488C363.584 119.844 350.076 92.2958 328.893 71.2775C307.71 50.2591 280.084 36.9931 250.462 33.6147C220.841 30.2363 191.187 30.9911 165.83 46.7015C140.474 62.412 121.406 84.6779 111.19 112.739L102.397 114.882C113.344 84.8122 133.421 61.389 160.591 44.5544Z" fill="#A60303"/>
<path d="M102.397 114.882C110.967 91.5312 124.965 72.5635 143.991 56.5758C163.017 40.5882 185.888 29.8667 210.33 25.4767C234.772 21.0866 259.936 23.1808 283.32 31.5512C306.704 39.9215 327.496 54.2766 343.628 73.1903C359.761 92.1039 370.673 114.918 375.28 139.365C379.888 163.812 378.03 189.042 369.892 212.547C361.754 236.052 347.619 257.015 328.892 273.352C310.164 289.69 286.882 300.941 262.525 305.783L264.258 301.582C307.602 196.468 212.596 86.8814 102.397 114.882V114.882Z" fill="url(#paint0_linear)"/>
<defs>
<filter id="filter0_di" x="406.434" y="110.102" width="719.699" height="152.314" filterUnits="userSpaceOnUse" color-interpolation-filters="sRGB">
<feFlood flood-opacity="0" result="BackgroundImageFix"/>
<feColorMatrix in="SourceAlpha" type="matrix" values="0 0 0 0 0 0 0 0 0 0 0 0 0 0 0 0 0 0 127 0"/>
<feOffset dy="4"/>
<feGaussianBlur stdDeviation="2"/>
<feColorMatrix type="matrix" values="0 0 0 0 0 0 0 0 0 0 0 0 0 0 0 0 0 0 0.25 0"/>
<feBlend mode="normal" in2="BackgroundImageFix" result="effect1_dropShadow"/>
<feBlend mode="normal" in="SourceGraphic" in2="effect1_dropShadow" result="shape"/>
<feColorMatrix in="SourceAlpha" type="matrix" values="0 0 0 0 0 0 0 0 0 0 0 0 0 0 0 0 0 0 127 0" result="hardAlpha"/>
<feOffset dy="4"/>
<feGaussianBlur stdDeviation="2"/>
<feComposite in2="hardAlpha" operator="arithmetic" k2="-1" k3="1"/>
<feColorMatrix type="matrix" values="0 0 0 0 0 0 0 0 0 0 0 0 0 0 0 0 0 0 0.25 0"/>
<feBlend mode="normal" in2="shape" result="effect2_innerShadow"/>
</filter>
<linearGradient id="paint0_linear" x1="240.074" y1="23.2394" x2="240.074" y2="305.783" gradientUnits="userSpaceOnUse">
<stop stop-color="#F23827"/>
<stop offset="1" stop-color="#A60303"/>
</linearGradient>
</defs>
</svg>
