<?xml version="1.0" encoding="UTF-8" standalone="no"?>
<svg
   xmlns:dc="http://purl.org/dc/elements/1.1/"
   xmlns:cc="http://creativecommons.org/ns#"
   xmlns:rdf="http://www.w3.org/1999/02/22-rdf-syntax-ns#"
   xmlns:svg="http://www.w3.org/2000/svg"
   xmlns="http://www.w3.org/2000/svg"
   xmlns:sodipodi="http://sodipodi.sourceforge.net/DTD/sodipodi-0.dtd"
   xmlns:inkscape="http://www.inkscape.org/namespaces/inkscape"
   id="a751cec9-7d0e-4c8a-a2d9-3a6c65a20454"
   data-name="Layer 1"
   width="385.34131"
   height="310.79999"
   viewBox="0 0 385.34131 310.79999"
   version="1.1"
   sodipodi:docname="undraw_newspaper_k72w.svg"
   inkscape:version="0.92.5 (2060ec1f9f, 2020-04-08)">
  <metadata
     id="metadata5294">
    <rdf:RDF>
      <cc:Work
         rdf:about="">
        <dc:format>image/svg+xml</dc:format>
        <dc:type
           rdf:resource="http://purl.org/dc/dcmitype/StillImage" />
        <dc:title>newspaper</dc:title>
      </cc:Work>
    </rdf:RDF>
  </metadata>
  <defs
     id="defs5292" />
  <sodipodi:namedview
     pagecolor="#ffffff"
     bordercolor="#666666"
     borderopacity="1"
     objecttolerance="10"
     gridtolerance="10"
     guidetolerance="10"
     inkscape:pageopacity="0"
     inkscape:pageshadow="2"
     inkscape:window-width="1366"
     inkscape:window-height="704"
     id="namedview5290"
     showgrid="false"
     inkscape:zoom="0.77352535"
     inkscape:cx="195.54776"
     inkscape:cy="209.03542"
     inkscape:window-x="0"
     inkscape:window-y="0"
     inkscape:window-maximized="1"
     inkscape:current-layer="a751cec9-7d0e-4c8a-a2d9-3a6c65a20454"
     fit-margin-top="0"
     fit-margin-left="0"
     fit-margin-right="0"
     fit-margin-bottom="0"
     height="10000000px" />
  <title
     id="title5213">newspaper</title>
  <path
     d="M 312.99942,293.54006 H 79.093848 l 0.10549,-23.90935 C 79.466268,209.01473 129.5534,159.03682 192.29678,158.03621 q 1.01676,-0.0527 2.03689,-0.0527 h 1.9e-4 a 118.32031,114.28901 0 0 1 41.35666,7.21494 c 44.39576,15.95712 74.19432,56.50821 76.17654,102.22036 z"
     id="path5215"
     inkscape:connector-curvature="0"
     style="fill:#da3323;stroke-width:0.47399241" />
  <rect
     y="293.38208"
     width="385.34131"
     height="0.93169546"
     id="rect5217"
     x="0"
     style="fill:#2f2e41;stroke-width:0.47399241" />
  <polygon
     points="404.115,363.252 398.287,400.165 419.657,415.708 441.028,598.33 491.54,598.33 474.055,390.451 "
     id="polygon5219"
     transform="matrix(0.48227952,0,0,0.46584774,-1.6894531e-6,-0.00773566)"
     style="fill:#2f2e41" />
  <path
     d="m 148.98502,159.24747 c 0,0 -2.81089,30.8083 8.4327,31.70359 11.24359,0.89528 54.34404,-9.05817 54.34404,-9.05817 l 20.61326,70.6221 30.91991,-15.43048 c 0,0 -18.73933,-79.62761 -29.98292,-84.15669 -11.2436,-4.52908 -48.72225,-13.58725 -48.72225,-13.58725 l -27.17203,4.52908 z"
     id="path5221"
     inkscape:connector-curvature="0"
     style="fill:#2f2e41;stroke-width:0.47399241" />
  <path
     d="m 216.44659,276.95098 c 0,0 -5.62179,20.80218 -1.87393,22.59275 a 67.777069,65.467832 0 0 1 6.55877,3.6338 v -3.6338 c 0,0 4.68482,4.52908 4.68482,8.16288 0,3.58114 25.29809,4.63441 25.29809,0 0,-4.52908 -0.93697,-9.95345 -5.6218,-12.69196 -4.68483,-2.68586 -10.30662,-18.06367 -10.30662,-18.06367 z"
     id="path5223"
     inkscape:connector-curvature="0"
     style="fill:#2f2e41;stroke-width:0.47399241" />
  <polygon
     points="509.025,551.703 522.625,575.016 555.652,538.103 530.396,497.305 505.14,514.79 "
     id="polygon5225"
     transform="matrix(0.48227952,0,0,0.46584774,-1.6894531e-6,-0.00773566)"
     style="fill:#2f2e41" />
  <path
     d="m 258.61007,256.99141 c 0,0 3.4501,-11.37537 6.87836,-10.21677 3.42827,1.21127 16.54579,12.95529 16.54579,12.95529 l 9.36968,5.42436 c 0,0 18.73933,1.79057 13.11753,7.2676 -5.62181,5.42437 -26.23505,12.6393 -35.60473,9.00551 -9.36967,-3.58114 -11.24359,-4.47642 -11.24359,-4.47642 l -2.8109,1.79056 -11.2436,-2.73851 1.87394,-19.01162 c 0,0 2.81089,8.16288 13.11752,0 z"
     id="path5227"
     inkscape:connector-curvature="0"
     style="fill:#2f2e41;stroke-width:0.47399241" />
  <ellipse
     cx="180.84189"
     cy="25.323538"
     id="circle5229"
     style="fill:#9f616a;stroke-width:0.47399241"
     rx="21.55022"
     ry="20.815981" />
  <path
     d="m 167.25587,37.541524 c 0,0 1.87393,19.01162 -3.74787,19.01162 -5.6218,0 0.93696,23.5407 15.92844,23.5407 14.99147,0 20.61326,-28.06979 20.61326,-28.06979 0,0 -10.30663,-3.63379 -8.43269,-15.37781 1.87393,-11.79669 -24.36114,0.89528 -24.36114,0.89528 z"
     id="path5231"
     inkscape:connector-curvature="0"
     style="fill:#9f616a;stroke-width:0.47399241" />
  <path
     d="m 165.76279,55.078554 -7.87659,3.26516 -21.37692,8.74218 a 4.3402987,4.19242 0 0 0 -2.62195,4.31843 l 8.07046,69.305506 c 0,0 -8.43269,17.22105 4.68484,18.11633 l 1.87391,6.31965 14.99146,-17.16838 56.21797,-1.84323 0.93697,-87.790486 -25.72271,-9.79546 c 0,0 -3.4985,18.69563 -29.17744,6.5303 z"
     id="path5233"
     inkscape:connector-curvature="0"
     style="fill:#3f3d56;stroke-width:0.47399241" />
  <path
     d="m 139.61537,69.666424 -3.4625,-0.94795 a 2.8546125,2.7573527 0 0 0 -3.60323,2.21188 l -9.18832,55.665586 a 20.015372,19.333426 0 0 0 1.9555,12.06 c 2.83903,5.21371 8.73533,9.90079 20.85732,4.31843 l 8.4327,-58.825416 z"
     id="path5235"
     inkscape:connector-curvature="0"
     style="fill:#3f3d56;stroke-width:0.47399241" />
  <path
     d="m 209.88783,56.974454 11.2436,1.84323 30.9199,41.604366 2.81088,7.2676 17.80238,-5.42437 c 0,0 -0.93696,8.11022 8.4327,7.21494 0,0 -11.2436,29.86035 -34.66775,20.85485 -23.42416,-9.05817 -30.91991,-36.232666 -30.91991,-36.232666 z"
     id="path5237"
     inkscape:connector-curvature="0"
     style="fill:#3f3d56;stroke-width:0.47399241" />
  <polygon
     points="374.973,126.232 371.088,137.889 411.886,172.859 462.399,161.203 "
     id="polygon5239"
     transform="matrix(0.48227952,0,0,0.46584774,-1.6894531e-6,-0.00773566)"
     style="fill:#cccccc" />
  <path
     d="m 167.86689,26.640124 c 0.79592,-0.21065 0.91284,-1.21126 0.93952,-2.00122 0.14285,-4.26577 2.79795,-8.63686 7.01861,-9.90079 a 11.799717,11.397687 0 0 1 4.97375,-0.26332 18.83916,18.197289 0 0 1 6.73581,2.21188 c 1.09927,0.5793 2.17754,1.3166 3.42441,1.47459 0.82348,0.10532 4.38903,1.10594 5.20901,1.26393 1.80281,0.31598 3.47825,1.89589 5.2082,1.31659 1.65505,-0.5793 2.02142,-2.63319 2.06142,-4.31843 0.0912,-3.89712 -2.93784,-9.2161597 -5.60579,-12.0599997 -2.02461,-2.21188 -5.0731,-3.21249 -8.0531,-3.73912996 a 53.614046,51.787359 0 0 0 -10.53195,-0.5793 c -4.76906,0.0527 -9.67031,0.42131 -13.97068,2.42253996 -4.30037,2.00122 -7.91255,5.951 -8.11869,10.5327497 -0.0429,1.00061 0.0595,1.94856 -0.024,2.89651 -0.2036,2.3172 -1.48615,4.42375 -2.08778,6.68829 a 12.708148,12.275168 0 0 0 1.77468,9.84813 c 1.59598,2.26454 7.97822,4.31842 7.88595,7.05694 1.15353,-1.1586 -1.56676,-2.31721 -0.41323,-3.47581 a 2.8418224,2.7449985 0 0 0 0.84517,-3.37048 l -1.22492,-4.58175 c -0.22429,-0.84262 -0.44483,-1.79056 -0.10606,-2.58052 1.31317,-3.15983 2.73263,1.52725 4.05967,1.1586 z"
     id="path5241"
     inkscape:connector-curvature="0"
     style="fill:#2f2e41;stroke-width:0.47399241" />
  <polygon
     points="528.453,167.031 371.088,137.889 334.175,281.655 477.941,332.168 561.481,262.227 613.936,104.862 "
     id="polygon5243"
     transform="matrix(0.48227952,0,0,0.46584774,-1.6894531e-6,-0.00773566)"
     style="fill:#f2f2f2" />
  <rect
     x="-25.335915"
     y="194.83499"
     width="0.90700275"
     height="69.618668"
     transform="matrix(0.2635392,-0.96464869,0.96901546,0.24700008,0,0)"
     id="rect5245"
     style="fill:#e6e6e6;stroke-width:0.47402707" />
  <rect
     x="-30.075661"
     y="194.1767"
     width="0.90700275"
     height="69.618668"
     transform="matrix(0.2635392,-0.96464869,0.96901546,0.24700008,0,0)"
     id="rect5247"
     style="fill:#e6e6e6;stroke-width:0.47402707" />
  <rect
     x="-34.815399"
     y="194.44"
     width="0.90700275"
     height="69.618668"
     transform="matrix(0.2635392,-0.96464869,0.96901546,0.24700008,0,0)"
     id="rect5249"
     style="fill:#e6e6e6;stroke-width:0.47402707" />
  <rect
     x="-39.028496"
     y="194.70334"
     width="0.90700275"
     height="69.618668"
     transform="matrix(0.2635392,-0.96464869,0.96901546,0.24700008,0,0)"
     id="rect5251"
     style="fill:#e6e6e6;stroke-width:0.47402707" />
  <rect
     x="-43.768242"
     y="195.09833"
     width="0.90700275"
     height="69.618668"
     transform="matrix(0.2635392,-0.96464869,0.96901546,0.24700008,0,0)"
     id="rect5253"
     style="fill:#e6e6e6;stroke-width:0.47402707" />
  <rect
     x="-48.507973"
     y="195.36163"
     width="0.90700275"
     height="69.618668"
     transform="matrix(0.2635392,-0.96464869,0.96901546,0.24700008,0,0)"
     id="rect5255"
     style="fill:#e6e6e6;stroke-width:0.47402707" />
  <rect
     x="-53.247719"
     y="195.62494"
     width="0.90700275"
     height="69.618668"
     transform="matrix(0.2635392,-0.96464869,0.96901546,0.24700008,0,0)"
     id="rect5257"
     style="fill:#e6e6e6;stroke-width:0.47402707" />
  <rect
     x="-57.460823"
     y="195.88828"
     width="0.90700275"
     height="69.618668"
     transform="matrix(0.2635392,-0.96464869,0.96901546,0.24700008,0,0)"
     id="rect5259"
     style="fill:#e6e6e6;stroke-width:0.47402707" />
  <rect
     x="-62.200554"
     y="196.15158"
     width="0.90700275"
     height="69.618668"
     transform="matrix(0.2635392,-0.96464869,0.96901546,0.24700008,0,0)"
     id="rect5261"
     style="fill:#e6e6e6;stroke-width:0.47402707" />
  <path
     d="m 150.39908,113.48266 c 0,0 21.07314,-12.11266 30.44279,-4.00244 9.36967,8.16288 -27.17202,19.9069 -27.17202,19.9069 z"
     id="path5263"
     inkscape:connector-curvature="0"
     style="fill:#9f616a;stroke-width:0.47399241" />
  <path
     d="m 127.4348,119.43367 27.17202,-9.95345 c 0,0 -4.68483,17.22105 4.68483,18.11633 l -13.11754,15.37782 c 0,0 -26.23505,0 -18.73931,-23.5407 z"
     id="path5265"
     inkscape:connector-curvature="0"
     style="fill:#3f3d56;stroke-width:0.47399241" />
  <polygon
     points="487.255,280.799 469.562,319.365 394.801,294.169 412.494,255.602 "
     id="polygon5267"
     transform="matrix(0.48227952,0,0,0.46584774,-1.6894531e-6,-0.00773566)"
     style="fill:#e6e6e6" />
  <polygon
     points="601.308,131.089 585.766,183.545 527.482,226.286 544.967,173.831 "
     id="polygon5269"
     transform="matrix(0.48227952,0,0,0.46584774,-1.6894531e-6,-0.00773566)"
     style="fill:#cccccc" />
  <rect
     x="125.71753"
     y="239.71895"
     width="33.686287"
     height="0.91702694"
     transform="matrix(0.80663592,-0.59104864,0.61763743,0.78646297,0,0)"
     id="rect5271"
     style="fill:#e6e6e6;stroke-width:0.47412446" />
  <rect
     x="118.08128"
     y="246.56523"
     width="33.686287"
     height="0.91702694"
     transform="matrix(0.80663592,-0.59104864,0.61763743,0.78646297,0,0)"
     id="rect5273"
     style="fill:#e6e6e6;stroke-width:0.47412446" />
  <path
     d="m 278.28638,110.3755 c 0,0 23.42416,-13.534576 8.43269,-18.958946 -14.99145,-5.47703 -14.99146,15.377816 -14.99146,15.377816 0,0 -0.93698,4.52908 6.55877,3.58113 z"
     id="path5275"
     inkscape:connector-curvature="0"
     style="fill:#9f616a;stroke-width:0.47399241" />
  <polygon
     points="290.462,247.657 320.575,239.063 296.29,239.885 292.405,171.888 "
     id="polygon5277"
     transform="matrix(0.48227952,0,0,0.46584774,-1.6894531e-6,-0.00773566)"
     style="opacity:0.1" />
  <path
     d="m 38.779438,277.58294 c 2.92896,10.48009 12.96132,16.95773 12.96132,16.95773 0,0 5.28357,-10.48009 2.3546,-20.96017 -2.92896,-10.42743 -12.96132,-16.90507 -12.96132,-16.90507 0,0 -5.28356,10.48009 -2.3546,20.90751 z"
     id="path5279"
     inkscape:connector-curvature="0"
     style="fill:#8985a8;stroke-width:0.47399241" />
  <path
     d="m 43.083338,275.37106 c 8.03711,7.53092 9.01879,19.16961 9.01879,19.16961 0,0 -12.04906,-0.63196 -20.08618,-8.21554 -8.03711,-7.53092 -9.01878,-19.16961 -9.01878,-19.16961 0,0 12.04906,0.63196 20.08617,8.21554 z"
     id="path5281"
     inkscape:connector-curvature="0"
     style="fill:#3f3d56;stroke-width:0.47399241" />
  <rect
     x="301.90701"
     y="176.46854"
     width="14.468385"
     height="13.975431"
     id="rect5283"
     style="fill:#f2f2f2;stroke-width:0.47399241" />
  <rect
     x="244.03342"
     y="18.47724"
     width="14.468385"
     height="13.975431"
     id="rect5285"
     style="fill:#f2f2f2;stroke-width:0.47399241" />
  <ellipse
     cx="76.682434"
     cy="152.76984"
     id="circle5287"
     style="fill:#f2f2f2;stroke-width:0.47399241"
     rx="7.2341924"
     ry="6.9877157" />
</svg>
